<?xml version="1.0" encoding="UTF-8" standalone="no"?>
<svg
   xmlns:dc="http://purl.org/dc/elements/1.1/"
   xmlns:cc="http://creativecommons.org/ns#"
   xmlns:rdf="http://www.w3.org/1999/02/22-rdf-syntax-ns#"
   xmlns:svg="http://www.w3.org/2000/svg"
   xmlns="http://www.w3.org/2000/svg"
   id="svg8"
   version="1.1"
   viewBox="0 0 1058.3333 1058.3334"
   height="4000"
   width="4000">
  <defs
     id="defs2" />
  <metadata
     id="metadata5">
    <rdf:RDF>
      <cc:Work
         rdf:about="">
        <dc:format>image/svg+xml</dc:format>
        <dc:type
           rdf:resource="http://purl.org/dc/dcmitype/StillImage" />
        <dc:title></dc:title>
      </cc:Work>
    </rdf:RDF>
  </metadata>
  <g
     transform="translate(0,761.33335)"
     id="layer1">
    <rect
       style="fill:#26292b;fill-opacity:1;stroke-width:0.26458332"
       y="-761.33337"
       x="0"
       height="1058.3334"
       width="1058.3334"
       id="rect29" />
    <g
       id="g4626">
      <g
         transform="matrix(1.2226254,0,0,1.2226254,-47.313802,90.236856)"
         id="g4631">
        <path
           id="path4609"
           d="m 282.94964,17.820251 c -26.93745,-4.870766 -47.58159,-19.2431468 -58.8816,-40.993175 -4.36503,-8.401726 -4.91804,-10.273798 -4.23286,-14.329308 0.60146,-3.560066 0.32044,-5.181781 -1.18648,-6.846918 -1.69251,-1.870199 -1.77544,-2.785461 -0.58049,-6.406197 0.76677,-2.323349 1.211,-4.341886 0.98718,-4.485651 -11.54283,-7.414063 -15.98279,-11.477312 -23.16519,-21.199758 -2.73561,-3.703075 -5.90061,-9.126299 -7.03333,-12.051603 -3.37122,-8.706387 -7.96168,-17.538701 -9.11549,-17.538701 -2.24756,0 -4.73559,-3.79512 -4.73559,-7.22345 0,-2.13905 -1.04774,-4.62305 -2.61856,-6.20818 -1.44021,-1.45331 -3.17798,-3.34635 -3.86171,-4.20677 -0.68374,-0.8604 -3.0459,-3.14028 -5.24927,-5.06639 -2.26345,-1.97863 -4.72826,-5.69013 -5.6662,-8.53211 -0.96339,-2.91908 -3.28346,-6.36823 -5.52825,-8.21857 -6.26363,-5.16302 -15.32713,-19.58576 -15.43001,-24.55377 -0.0332,-1.60023 -1.03709,-4.5114 -2.231,-6.46924 -2.29654,-3.76598 -5.10627,-14.72905 -6.99189,-27.28109 -0.62502,-4.1606 -2.18905,-12.54 -3.47561,-18.62088 -1.88711,-8.91935 -2.56325,-18.70361 -3.49846,-50.62549 -1.07089,-36.55334 -1.38725,-40.45642 -4.15053,-51.2074 -6.42159,-24.98423 -6.80404,-28.40076 -6.51388,-58.19022 0.14964,-15.36222 0.48513,-28.27878 0.74553,-28.70345 0.26041,-0.42467 0.65953,-7.28848 0.88693,-15.2529 0.53374,-18.69305 2.98543,-24.69204 14.64459,-35.83354 4.39378,-4.19871 8.74848,-9.45244 9.6771,-11.67494 0.92862,-2.22252 4.11095,-6.38104 7.07185,-9.24116 4.10899,-3.96916 5.38798,-6.0554 5.40264,-8.81265 0.0208,-3.92017 4.5044,-9.77133 7.48744,-9.77133 0.96818,0 2.38302,-1.17835 3.14409,-2.61856 1.9129,-3.61988 12.39975,-13.6747 14.26227,-13.6747 0.83848,0 2.14957,-2.0863 2.91355,-4.63622 0.76397,-2.54993 2.4952,-5.22823 3.84718,-5.95179 1.35197,-0.72355 4.23138,-3.0888 6.39869,-5.2561 2.1673,-2.16731 4.69274,-3.94057 5.61207,-3.94057 0.91933,0 3.45586,-1.00221 5.63674,-2.22713 6.30513,-3.54138 16.73307,-5.802 28.98305,-6.28307 9.39012,-0.36876 11.34709,-0.15172 11.34709,1.25846 0,1.27269 0.81018,1.50611 3.20046,0.92206 4.46167,-1.09017 8.47728,-0.88204 12.17889,0.63123 2.5611,1.04702 3.51358,0.93742 5.02969,-0.57868 1.4111,-1.4111 3.06417,-1.68394 6.73294,-1.1113 2.67445,0.41743 5.20256,1.2795 5.61804,1.91569 0.41547,0.63618 1.5604,0.8478 2.54428,0.47024 0.98389,-0.37755 3.09194,0.33854 4.68459,1.5913 2.443,1.92166 3.36435,2.06424 5.89329,0.91197 1.96523,-0.89541 2.9976,-2.29431 2.9976,-4.06183 0,-2.41302 0.48804,-2.66829 4.64919,-2.43175 2.91883,0.16592 4.65144,0.83173 4.65522,1.78891 0.005,1.03973 1.11647,1.34963 3.49744,0.97439 1.92028,-0.30264 3.49141,-0.0786 3.49141,0.49784 0,0.57644 2.92212,0.92354 6.4936,0.77132 4.8318,-0.20594 6.84217,0.19792 7.85568,1.57808 1.61482,2.19901 10.09062,4.10675 10.09062,2.2712 0,-1.90371 3.11433,-1.42736 5.36181,0.82012 1.56877,1.56878 3.99415,2.03666 10.55737,2.03666 5.99961,0 8.52071,0.42658 8.52071,1.44172 0,0.79295 1.17835,1.42046 2.61856,1.39447 1.44021,-0.0259 5.10197,0.30937 8.13724,0.74523 3.06332,0.4399 6.1701,0.29943 6.98282,-0.31572 0.80529,-0.60952 6.70127,-1.02912 13.1022,-0.93244 9.43351,0.14248 12.56619,0.65461 16.53784,2.70362 2.6949,1.39031 5.57531,2.53027 6.40093,2.53324 0.82561,0.003 3.31218,1.70502 5.52572,3.78236 3.80799,3.5737 9.02314,5.4516 20.70624,7.45602 3.14383,0.53938 3.78237,0.28361 3.78237,-1.51505 0,-1.74479 0.95817,-2.19513 4.94616,-2.32476 6.51061,-0.2116 22.94399,-2.69893 25.89465,-3.91935 3.80595,-1.57418 7.56473,-2.16722 7.56473,-1.19352 0,1.57552 7.3379,2.50887 8.24067,1.04817 0.55612,-0.89983 2.741,-1.08982 6.61813,-0.5755 3.18337,0.42228 8.51738,0.18244 11.85335,-0.533 5.4821,-1.1757 6.269,-1.08228 8.1823,0.97143 5.91223,6.34602 18.12758,14.25488 22.0169,14.25488 0.70338,0 1.27887,0.39368 1.27887,0.87485 0,0.48117 2.44734,2.17316 5.43854,3.75999 3.85976,2.0476 5.57715,2.46934 5.91601,1.45276 1.20625,-3.61874 24.84858,1.65627 27.33478,6.09887 0.54763,0.97855 1.53868,1.77918 2.20235,1.77918 0.66367,0 3.50988,1.65405 6.32492,3.67566 3.73717,2.68382 5.31563,4.72779 5.84975,7.57485 0.96795,5.15959 4.66277,9.69797 7.89541,9.69797 1.43144,0 3.6192,0.76892 4.8617,1.7087 1.2425,0.93977 3.91752,1.72534 5.94448,1.74571 2.02695,0.0204 3.85995,0.50213 4.07332,1.07063 0.21336,0.56849 6.02008,1.30216 12.90382,1.63036 11.18222,0.53316 13.27762,0.99318 19.66433,4.3171 3.93162,2.04619 8.21782,4.71665 9.52487,5.93437 1.30706,1.2177 3.47938,2.21401 4.82739,2.21401 2.37961,0 9.81115,8.48982 11.43038,13.05811 0.39028,1.10109 2.17223,2.32319 3.95989,2.71577 5.74719,1.26212 6.06685,1.51095 8.45546,6.582 1.29365,2.74644 3.79398,6.40254 5.55629,8.12468 6.95747,6.79886 13.80039,12.31435 16.20103,13.05826 4.04178,1.25244 8.53355,5.3217 8.53355,7.73087 0,1.45356 1.10585,2.49668 3.20046,3.01891 1.76026,0.43887 5.50424,2.01998 8.31997,3.51358 2.81573,1.49361 5.92934,2.71565 6.91914,2.71565 0.98981,0 3.13758,1.26539 4.77283,2.81198 3.44149,3.25489 13.58602,8.82606 16.07133,8.82606 0.93243,0 3.19406,1.17836 5.02586,2.61856 1.8318,1.44021 5.37364,4.1897 7.87076,6.10998 2.49712,1.92028 5.76579,5.78608 7.26369,8.59068 1.49791,2.80459 4.69309,7.57299 7.1004,10.59645 4.81497,6.04735 6.77524,10.29623 6.77524,14.68533 0,3.21793 4.16502,12.09782 5.67436,12.09782 2.106,0 16.86415,14.70151 18.36569,18.29519 0.87764,2.10048 3.68248,5.78254 6.23298,8.18235 2.5505,2.3998 4.63813,4.83676 4.63919,5.41547 10e-4,0.5787 2.60343,6.14452 5.78307,12.36847 3.17963,6.22395 6.29177,13.34429 6.91586,15.82297 0.62409,2.47868 2.02324,7.81319 3.10924,11.85446 1.68894,6.28501 1.75643,8.0086 0.46661,11.9168 -1.28848,3.90413 -1.23889,5.20591 0.34079,8.9455 2.17186,5.14148 3.83452,21.40639 3.55591,34.78557 -0.19437,9.33324 -2.61039,19.1396 -5.55426,22.544 -0.83025,0.96013 -1.78672,3.05498 -2.12548,4.65521 -0.33876,1.60024 -1.31173,4.62272 -2.16215,6.71663 -1.18411,2.91552 -1.23237,4.30968 -0.20609,5.95303 1.15414,1.84806 0.69335,2.61192 -3.31982,5.50333 -2.56299,1.84657 -5.27281,4.03285 -6.02182,4.85839 -0.74902,0.82556 -3.58763,3.66024 -6.30802,6.29931 -2.72039,2.63907 -4.94617,5.5038 -4.94617,6.36607 0,0.86228 -1.12218,2.47914 -2.49373,3.59304 -8.20439,6.66314 -10.59757,9.23067 -13.7665,14.76939 -1.93845,3.38804 -3.52445,6.95428 -3.52445,7.92496 0,2.46653 -10.14056,12.49934 -12.63359,12.49934 -1.12804,0 -3.06758,0.76892 -4.31008,1.7087 -1.2425,0.939772 -3.20497,1.72534 -4.36103,1.745707 -1.15607,0.02037 -5.34246,1.644805 -9.30309,3.609877 -3.96064,1.965084 -8.33501,3.356121 -9.72082,3.091216 -1.57626,-0.301321 -2.32619,0.02246 -2.00295,0.864823 0.28418,0.740564 -0.54433,2.306695 -1.84112,3.480287 -2.19814,1.98928 -2.2234,2.232096 -0.37301,3.585124 1.86003,1.360091 1.84104,1.722256 -0.30179,5.760529 -3.25858,6.140943 -15.40074,17.135171 -24.61557,22.288404 -25.03998,14.003152 -54.35997,24.164457 -105.10761,36.426685 -5.44078,1.314669 -13.82017,3.466927 -18.62087,4.782795 -9.42468,2.583296 -28.3574,5.7602151 -34.3278,5.7602151 -2.0294,0 -4.05275,0.362944 -4.49635,0.8065514 -0.44361,0.4435957 -3.01852,0.9363855 -5.72204,1.0950935 -8.53655,0.5010993 -87.32246,13.288762 -92.40444,14.9980649 -8.17344,2.7490921 -54.93187,7.5209001 -91.15503,9.3025691 -42.47541,2.089192 -70.96459,2.051217 -82.92007,-0.110562 z m 283.94304,-32.613887 c -0.38672,-0.386721 -1.39051,-0.428059 -2.23063,-0.09182 -0.9284,0.371509 -0.65264,0.647284 0.70314,0.703124 1.22683,0.05051 1.91421,-0.224533 1.52749,-0.611254 z M 234.51739,-25.957431 c -1.9787,-3.39462 -3.6092,-5.761845 -3.62331,-5.260501 -0.0483,1.715087 5.94864,12.704846 6.58539,12.068106 0.34955,-0.349561 -0.98338,-3.412973 -2.96208,-6.807605 z m 495.71676,-45.962678 c 3.14894,-3.322173 5.72536,-7.080877 5.72536,-8.352671 0,-2.1139 -0.5624,-1.97372 -6.55231,1.633225 -7.25814,4.370621 -8.70144,6.072813 -10.57393,12.470572 l -1.27785,4.366036 3.47668,-2.038427 c 1.91218,-1.121139 6.0531,-4.756562 9.20205,-8.078735 z"
           style="fill:#ffffff;fill-opacity:1;stroke-width:1.16380441" />
        <g
           transform="translate(-19.097744)"
           id="g4641">
          <text
             id="text4617"
             y="-131.70461"
             x="219.00378"
             style="font-style:normal;font-weight:normal;font-size:362.6048584px;line-height:1.25;font-family:sans-serif;letter-spacing:0px;word-spacing:0px;fill:#26292b;fill-opacity:1;stroke:none;stroke-width:9.0651207"
             xml:space="preserve"><tspan
               style="font-style:normal;font-variant:normal;font-weight:bold;font-stretch:normal;font-family:'IBM Plex Sans';-inkscape-font-specification:'IBM Plex Sans Bold';fill:#26292b;fill-opacity:1;stroke-width:9.0651207"
               y="-131.70461"
               x="219.00378"
               id="tspan4615">CO</tspan></text>
          <text
             xml:space="preserve"
             style="font-style:normal;font-weight:normal;font-size:106.21733093px;line-height:1.25;font-family:sans-serif;letter-spacing:0px;word-spacing:0px;fill:#26292b;fill-opacity:1;stroke:none;stroke-width:2.65543294"
             x="681.75201"
             y="-87.749771"
             id="text4635"><tspan
               id="tspan4633"
               x="681.75201"
               y="-87.749771"
               style="font-style:normal;font-variant:normal;font-weight:bold;font-stretch:normal;font-family:'IBM Plex Sans';-inkscape-font-specification:'IBM Plex Sans Bold';fill:#26292b;fill-opacity:1;stroke-width:2.65543294">2</tspan></text>
        </g>
      </g>
    </g>
  </g>
</svg>
