<svg xmlns="http://www.w3.org/2000/svg" xmlns:xlink="http://www.w3.org/1999/xlink" viewBox="0 0 100 125" version="1.1" x="0px" y="0px"><title>12.4</title><g stroke="none" stroke-width="1" fill="none" fill-rule="evenodd"><g fill-rule="nonzero" fill="#000000">
<path d="M77,37 L77,37 C77,37.5522847 76.5522847,38 76,38 L76,38 L23.1820505,38 C21.3194266,38 19.7033144,39.2856376 19.2844857,41.100562 L13.5896597,65.7781415 C13.5582459,65.9142676 13.4370274,66.0106924 13.2973236,66.0106837 C13.1316382,66.0106733 12.997332,65.8763504 12.9973423,65.710665 L12.9973423,65.710665 L13,24 C13.0000344,23.4477396 13.4477396,23.0000622 14,23.0000622 L14,23 L27.1897503,23 C27.4236868,23 27.6502197,23.0820162 27.8299347,23.2317787 L27.8299347,23.2317787 L32.4392624,27.0728851 C33.1581224,27.6719351 34.064254,28 35,28 L35,28 L76,28 C76.5522847,28 77,28.4477153 77,29 L77,29 L77,37 Z M16.2570511,77 C16.1813703,77 16.1059342,76.9914087 16.0321916,76.9743912 C15.4940502,76.8502047 15.1584734,76.3132819 15.2826599,75.7751405 L15.2826599,75.7751405 L22.7200821,43.5463111 C22.9295073,42.6388017 23.7376336,41.9959698 24.668994,41.9960301 L84.7038651,41.9999184 C84.780092,41.9999234 84.8560683,42.008644 84.9303138,42.0259104 C85.4682436,42.1510104 85.8029083,42.6885022 85.6778084,43.2264319 L85.6778084,43.2264319 L78.0033708,76.2265135 C77.8980372,76.6794478 77.4943839,77 77.0293628,77 L16.2570511,77 Z"/></g></g>
<text x="50" y="50" fill="#000000" font-size="1px" font-weight="bold" font-family="'Helvetica Neue', Helvetica, Arial-Unicode, Arial, Sans-serif">Created by Landan Lloyd</text><text x="50" y="52" fill="#000000" font-size="1px" font-weight="bold" font-family="'Helvetica Neue', Helvetica, Arial-Unicode, Arial, Sans-serif">from the Noun Project</text></svg>