<?xml version="1.0" encoding="iso-8859-1"?>
<!-- Generator: Adobe Illustrator 19.0.0, SVG Export Plug-In . SVG Version: 6.00 Build 0)  -->
<svg version="1.1" id="Layer_1" xmlns="http://www.w3.org/2000/svg" xmlns:xlink="http://www.w3.org/1999/xlink" x="0px" y="0px"
	 viewBox="0 0 429.6 429.6" style="enable-background:new 0 0 429.6 429.6;" xml:space="preserve">
<g>
	<g>
		<g>
			<path d="M197.2,328c4.4,0,8-3.6,8-8v-12.4c0-4.4-3.6-8-8-8c-4.4,0-8,3.6-8,8V320C189.2,324.4,192.8,328,197.2,328z"/>
			<path d="M310,309.6l-94.8-94.8L310,120c3.2-3.2,3.2-8,0-11.2L203.6,2.4c-1.6-1.6-4-2.4-6-2.4h-0.4c-4.4,0-8,3.6-8,8v180.8
				l-58.4-58.4c-3.2-3.2-8-3.2-11.2,0s-3.2,8,0,11.2l69.6,69.6v6.8l-69.6,70c-3.2,3.2-3.2,8,0,11.2c1.6,1.6,3.6,2.4,5.6,2.4
				s4-0.8,5.6-2.4l58.4-58.4v30.8c0,4.4,3.6,8,8,8c4.4,0,8-3.6,8-8v-44.4l88,88l-88,88V356c0-4.4-3.6-8-8-8c-4.4,0-8,3.6-8,8v64
				c0,1.6,0.4,3.2,1.2,4.4c0.4,1.2,0.8,2,2,2.8c1.6,1.6,3.6,2.4,5.6,2.4s4-0.8,5.6-2.4L310,320.8C313.2,317.6,313.2,312.8,310,309.6
				z M205.2,26.4l88,88l-88,88V26.4z"/>
		</g>
	</g>
</g>
<g>
</g>
<g>
</g>
<g>
</g>
<g>
</g>
<g>
</g>
<g>
</g>
<g>
</g>
<g>
</g>
<g>
</g>
<g>
</g>
<g>
</g>
<g>
</g>
<g>
</g>
<g>
</g>
<g>
</g>
</svg>
