<?xml version="1.0" encoding="UTF-8"?>
<svg width="134.17mm" height="124.55mm" version="1.1" viewBox="0 0 134.17 124.55" xmlns="http://www.w3.org/2000/svg" xmlns:cc="http://creativecommons.org/ns#" xmlns:dc="http://purl.org/dc/elements/1.1/" xmlns:rdf="http://www.w3.org/1999/02/22-rdf-syntax-ns#">
 <metadata>
  <rdf:RDF>
   <cc:Work rdf:about="">
    <dc:format>image/svg+xml</dc:format>
    <dc:type rdf:resource="http://purl.org/dc/dcmitype/StillImage"/>
    <dc:title/>
   </cc:Work>
  </rdf:RDF>
 </metadata>
 <g transform="translate(-37.418 -54.523)" stroke="#000" stroke-width=".26458px">
  <path d="m57.463 85.664h91.941c0.67017-1.34e-4 1.3181 0.24151 1.7455 0.5787 1.0372 0.81832 1.0806 1.9574 1.0871 2.9962 9e-3 1.4452-0.0621 2.8931-1.7203 3.7277 0 0-0.77699 0.16696-1.1123 0.18095h-91.941c-1.9917 0.0025-2.7595-2.3698-2.703-4.1781 0.04287-1.3724 1.4317-3.4457 2.703-3.3054z"/>
  <path d="m57.667 113.17h91.941c0.67017-1.3e-4 1.3181 0.24152 1.7455 0.5787 1.0372 0.81832 1.0806 1.9574 1.0871 2.9962 9e-3 1.4452-0.0621 2.8931-1.7203 3.7277 0 0-0.77699 0.16696-1.1123 0.18095h-91.941c-1.9917 2e-3 -2.7595-2.3698-2.703-4.1781 0.04287-1.3724 1.4317-3.4457 2.703-3.3054z"/>
  <path d="m57.745 141h91.941c0.67017-1.3e-4 1.3181 0.24152 1.7455 0.5787 1.0372 0.81832 1.0806 1.9574 1.0871 2.9962 9e-3 1.4452-0.0621 2.8931-1.7203 3.7277 0 0-0.77699 0.16696-1.1123 0.18095h-91.941c-1.9917 2e-3 -2.7595-2.3698-2.703-4.1781 0.04287-1.3724 1.4317-3.4457 2.703-3.3054z"/>
 </g>
</svg>
