<svg xmlns="http://www.w3.org/2000/svg" xmlns:xlink="http://www.w3.org/1999/xlink" xml:space="preserve" version="1.1" style="shape-rendering:geometricPrecision;text-rendering:geometricPrecision;image-rendering:optimizeQuality;" viewBox="0 0 846.66 1058.325" x="0px" y="0px" fill-rule="evenodd" clip-rule="evenodd"><defs><style type="text/css">
   
    .fil0 {fill:black;fill-rule:nonzero}
   
  </style></defs><g><path class="fil0" d="M505.77 220.08l0 118.41 -51.96 0 0 -66.44 -250.68 0 0 422.23 75.51 75.51 168.21 0 0 51.96 -189.73 0 -105.95 -105.95 0 -495.72 53.45 0 0 -195.15 247.71 0 0 195.15 53.44 0zm59.53 481.86c27.37,5.82 47.9,30.15 47.9,59.24 0,33.46 -27.12,60.57 -60.58,60.57 -33.45,0 -60.56,-27.11 -60.56,-60.57 0,-29.09 20.52,-53.42 47.88,-59.24l0 -43.04c-4.32,-2.13 -8.94,-4.34 -13.47,-6.51 -40.22,-19.18 -76.77,-36.63 -76.77,-86.97l0 -20.87c-11.03,-4.87 -18.7,-15.87 -18.7,-28.69 0,-17.32 14.05,-31.37 31.37,-31.37 17.33,0 31.38,14.05 31.38,31.37 0,12.82 -7.7,23.82 -18.7,28.69l0 20.87c0,34.38 29.67,48.52 62.3,64.09l2.59 1.25 0 -266.72 -28.96 0 41.64 -65.85 41.65 65.85 -28.97 0 0 216.08 8.35 -4 0 -0.05c42.78,-20.41 81.66,-38.97 81.66,-85.12l0 -47.87 -14.84 0 0 -55.03 55.03 0 0 55.03 -14.84 0 0 47.87c0,62.14 -45.76,83.98 -96.12,108l-0.02 -0.04c-6.25,2.98 -12.58,5.98 -19.22,9.31l0 93.72zm-221.33 -578.46l41.35 0 0 41.35 -41.35 0 0 -41.35zm-72.35 0l41.35 0 0 41.35 -41.35 0 0 -41.35zm-32.37 96.6l178.44 0 0 -160.52 -178.44 0 0 160.52z"/></g><text x="0" y="861.66" fill="#000000" font-size="5px" font-weight="bold" font-family="'Helvetica Neue', Helvetica, Arial-Unicode, Arial, Sans-serif">Created by callorine</text><text x="0" y="866.66" fill="#000000" font-size="5px" font-weight="bold" font-family="'Helvetica Neue', Helvetica, Arial-Unicode, Arial, Sans-serif">from the Noun Project</text></svg>