<svg id="adda4e41-4675-4828-8905-d91a367a8d62" data-name="Layer 1" xmlns="http://www.w3.org/2000/svg" width="1119.90058" height="668.59747" viewBox="0 0 1119.90058 668.59747"><title>project_feedback</title><path d="M311.53531,643.40977l-1.26717-.47505c-.27845-.10492-27.99251-10.72311-40.975-34.79938-12.983-24.07743-6.62585-53.06673-6.56013-53.35614l.29921-1.32021,1.2666.47505c.27845.10492,27.99193,10.72311,40.975,34.79938,12.983,24.07743,6.62585,53.06673,6.56013,53.35614ZM271.37207,607.0146c10.9762,20.35662,32.87672,30.79148,38.42564,33.17362,1.055-5.94729,4.36361-29.997-6.60279-50.33406-10.96525-20.33471-32.87441-30.78571-38.42564-33.17362C263.71369,562.63129,260.40624,586.67873,271.37207,607.0146Z" transform="translate(-40.04971 -115.70127)" fill="#3f3d56"/><path d="M279.21477,599.68977c23.33121,14.03683,32.3168,41.91783,32.3168,41.91783s-28.84178,5.12282-52.173-8.914-32.3168-41.91784-32.3168-41.91784S255.88356,585.65294,279.21477,599.68977Z" transform="translate(-40.04971 -115.70127)" fill="#d0cde1"/><rect y="527.59747" width="710.42812" height="2" fill="#3f3d56"/><rect x="409.47246" y="666.59747" width="710.42812" height="2" fill="#3f3d56"/><path d="M567.54549,626.35086l50.40107-74.95144-50.298,83.01477.10518,8.43392q-5.51922.04209-10.93121-.18381l2.49978-108.41248-.06849-.83636.09224-.16159.23926-10.24433-55.19511-80.13688,55.13,72.46959.19564,2.16533,1.88813-81.90985-47.6737-83.08359,47.80947,68.69438-.499-169.69611.00106-.56481.01622.55547,3.16469,133.74337,43.44889-54.32663L564.565,396.76814l.94829,73.26646,39.98191-71.50529-39.835,82.27672.52788,40.73984,58.14449-99.606L566.36483,535.75826Z" transform="translate(-40.04971 -115.70127)" fill="#3f3d56"/><path d="M127.04549,626.85086l50.40107-74.95144-50.298,83.01477.10518,8.43392q-5.51922.04209-10.93121-.18381l2.49978-108.41248-.06849-.83636.09224-.16159.23926-10.24433L63.89022,443.37266l55.13,72.46959.19564,2.16533,1.88813-81.90985-47.6737-83.08359,47.80947,68.69438-.499-169.69611.00106-.56481.01622.55547,3.16469,133.74337,43.44889-54.32663L124.065,397.26814l.94829,73.26646,39.98191-71.50529-39.835,82.27672.52788,40.73984,58.14449-99.606L125.86483,536.25826Z" transform="translate(-40.04971 -115.70127)" fill="#3f3d56"/><path d="M482.47783,355.74949H480.379v-57.4983a33.27846,33.27846,0,0,0-33.27856-33.27849H325.28255A33.27845,33.27845,0,0,0,292.004,298.25119V613.69133a33.27845,33.27845,0,0,0,33.27855,33.27849H447.10039A33.27846,33.27846,0,0,0,480.379,613.69133V396.67775h2.09888Z" transform="translate(-40.04971 -115.70127)" fill="#3f3d56"/><path d="M448.44365,641.04385H326.0374a25.88131,25.88131,0,0,1-25.84765-25.85644V300.20694a25.87673,25.87673,0,0,1,25.84765-25.84815h16.34375l-.56738,1.37988a10.67129,10.67129,0,0,0-.79883,4.07618,10.81865,10.81865,0,0,0,10.80664,10.80664h69.78906a10.81844,10.81844,0,0,0,10.80567-10.80664,10.69679,10.69679,0,0,0-.79785-4.07666l-.56641-1.3794h17.3916a25.87757,25.87757,0,0,1,25.84864,25.84815V615.18741A25.88215,25.88215,0,0,1,448.44365,641.04385ZM326.0374,276.35879a23.87506,23.87506,0,0,0-23.84765,23.84815V615.18741a23.87933,23.87933,0,0,0,23.84765,23.85644H448.44365a23.87955,23.87955,0,0,0,23.84864-23.85644V300.20694a23.87528,23.87528,0,0,0-23.84864-23.84815h-14.5a12.81446,12.81446,0,0,1-12.333,16.2627H351.82158a12.81445,12.81445,0,0,1-12.334-16.2627Z" transform="translate(-40.04971 -115.70127)" fill="#d0cde1"/><rect x="311.88018" y="372.02682" width="103.41617" height="3.84275" fill="#d0cde1"/><rect x="311.88018" y="384.19554" width="103.41617" height="3.84275" fill="#d0cde1"/><rect x="311.88018" y="396.36426" width="103.41617" height="3.84275" fill="#d0cde1"/><rect x="279.08605" y="374.40171" width="23.43041" height="23.43041" fill="#d0cde1"/><rect x="311.88018" y="423.02682" width="103.41617" height="3.84275" fill="#d0cde1"/><rect x="311.88018" y="435.19554" width="103.41617" height="3.84275" fill="#d0cde1"/><rect x="311.88018" y="447.36426" width="103.41617" height="3.84275" fill="#d0cde1"/><rect x="279.08605" y="425.40171" width="23.43041" height="23.43041" fill="#d0cde1"/><path d="M410.51994,411.69776c-5.11784,18.9186-22.64759,30.63537-22.64759,30.63537s-9.2321-18.95635-4.11426-37.875,22.64759-30.63537,22.64759-30.63537S415.63778,392.77915,410.51994,411.69776Z" transform="translate(-40.04971 -115.70127)" fill="#d0cde1"/><path d="M363.96189,411.69776c5.11783,18.9186,22.64759,30.63537,22.64759,30.63537s9.23209-18.95635,4.11426-37.875-22.6476-30.63537-22.6476-30.63537S358.84405,392.77915,363.96189,411.69776Z" transform="translate(-40.04971 -115.70127)" fill="#d0cde1"/><path d="M371.48219,407.632c14.04342,13.6707,15.75872,34.68576,15.75872,34.68576s-21.05358-1.14954-35.097-14.82024-15.75873-34.68577-15.75873-34.68577S357.43877,393.96124,371.48219,407.632Z" transform="translate(-40.04971 -115.70127)" fill="#61bdfa"/><path d="M402.99964,407.632c-14.04342,13.6707-15.75873,34.68576-15.75873,34.68576s21.05359-1.14954,35.097-14.82024,15.75873-34.68577,15.75873-34.68577S417.04306,393.96124,402.99964,407.632Z" transform="translate(-40.04971 -115.70127)" fill="#61bdfa"/><rect x="156.83882" y="293.71634" width="30.9126" height="29.84223" transform="translate(-139.78057 -32.77281) rotate(-21.14419)" fill="#61bdfa"/><path d="M186.88312,314.78361l-30.34887,11.73756-11.33113-29.298L175.552,285.48559Zm-29.398,9.68578,27.314-10.5638-10.198-26.36822-27.314,10.5638Z" transform="translate(-40.04971 -115.70127)" fill="#3f3d56"/><rect x="264.57404" y="123.93201" width="30.9126" height="29.84223" transform="translate(-71.28341 -5.34159) rotate(-21.14419)" fill="#61bdfa"/><path d="M294.61835,144.99928l-30.34888,11.73756-11.33113-29.298,30.34888-11.73755Zm-29.398,9.68578,27.314-10.5638-10.198-26.36821-27.314,10.56379Z" transform="translate(-40.04971 -115.70127)" fill="#3f3d56"/><path d="M885.44138,569.27452c-15.26561,0-28.65156,15.94435-36.03308,39.75318-.52212,1.67079-1.01161,3.38728-1.46847,5.12986a148.5767,148.5767,0,0,0-4.59468,37.35145c0,45.34643,18.88129,82.23448,42.09623,82.23448s42.09622-36.888,42.09622-82.23448S908.65631,569.27452,885.44138,569.27452Zm0,163.16366c-22.4905,0-40.79092-36.30718-40.79092-80.92917a147.73315,147.73315,0,0,1,4.65343-37.50155q.64611-2.45726,1.38363-4.8166c7.18573-23.14964,20.07566-38.611,34.75386-38.611,22.49049,0,40.79091,36.30718,40.79091,80.92918S907.93187,732.43818,885.44138,732.43818Z" transform="translate(-40.04971 -115.70127)" fill="#3f3d56"/><path d="M895.55752,699.05528c-8.05174,0-14.3584-20.885-14.3584-47.54627s6.30666-47.54627,14.3584-47.54627,14.3584,20.88494,14.3584,47.54627S903.60927,699.05528,895.55752,699.05528Zm0-93.78724c-7.07531,0-13.05309,21.17559-13.05309,46.241s5.97778,46.241,13.05309,46.241,13.0531-21.17558,13.0531-46.241S902.63283,605.268,895.55752,605.268Z" transform="translate(-40.04971 -115.70127)" fill="#3f3d56"/><ellipse cx="857.13945" cy="535.80774" rx="5.54756" ry="10.9204" fill="#cfcce0"/><polygon points="845.065 387.655 934.479 387.329 934.479 422.554 845.065 426.162 845.065 387.655" fill="#3f3d56"/><polygon points="768.703 507.127 767.401 507.055 771.35 435.299 852.245 435.299 852.245 436.604 772.586 436.604 768.703 507.127" fill="#3f3d56"/><polygon points="768.569 623.249 722.883 615.418 723.154 614.14 768.84 621.972 768.569 623.249" fill="#3f3d56"/><rect x="844.9765" y="729.08101" width="1.30588" height="55.66344" transform="translate(-18.18441 1421.8642) rotate(-85.29215)" fill="#3f3d56"/><path d="M946.62775,622.89661q-.73424,2.35938-1.38363,4.8166l-1.36406.15009L901.43141,632.582l-97.24554-9.78982L905.34734,617.571l40.00119,5.16248Z" transform="translate(-40.04971 -115.70127)" fill="#3f3d56"/><path d="M924.391,389.34352s-14.13539-5.04835-23.22242,15.14506-23.22243,42.40616-23.22243,42.40616l8.07737,2.01934s2.01934-14.13539,7.06769-16.15473l-2.01934,18.17407s60.58024,21.20309,87.84134-2.01934l-1.00967-7.06769s4.03869,1.00967,4.03869,7.06769l3.029-3.029s-3.029-6.058-12.11605-14.13539c-5.96433-5.30162-8.01394-15.38792-8.71827-21.694a26.25242,26.25242,0,0,0-6.044-14.29626C952.05408,388.76078,941.05054,381.32225,924.391,389.34352Z" transform="translate(-40.04971 -115.70127)" fill="#2f2e41"/><path d="M846.2821,408.39515l-5.87389-61.34953s-11.74779-33.28539,5.87389-30.67477,7.1792,28.06415,7.1792,28.06415l9.78982,63.96015Z" transform="translate(-40.04971 -115.70127)" fill="#a0616a"/><polygon points="760.547 571.377 754.02 593.568 766.42 604.01 775.558 575.946 760.547 571.377" fill="#a0616a"/><path d="M850.85068,703.39505l-6.52655,23.49557,22.84292,14.3584s.65265-26.75884,3.91592-31.98008Z" transform="translate(-40.04971 -115.70127)" fill="#a0616a"/><path d="M878.91483,578.08536l-3.26327,6.52655s-37.20132-16.969-46.99114,6.52654-31.32742,97.8982-31.32742,97.8982l18.927,7.83186,34.5907-78.97122,78.97121-1.958,3.26327-43.72786Z" transform="translate(-40.04971 -115.70127)" fill="#2f2e41"/><path d="M906.32632,589.18049s-53.51768-11.09513-57.4336,15.66371,1.958,77.6659,2.61061,78.97121-2.61061,25.45353-2.61061,25.45353l23.49556,3.26328s15.01106-71.13936,8.48451-89.41369l44.15847-2.73145c15.24316-.94288,27.69593-12.98423,28.57251-28.23135.33554-5.83643-1.12544-11.13342-6.1602-14.07037-15.66372-9.13716-44.38052-9.13716-44.38052-9.13716Z" transform="translate(-40.04971 -115.70127)" fill="#2f2e41"/><path d="M802.55424,708.61629s-4.56859-9.78982-11.09513-5.22124-21.53761,14.3584-21.53761,14.3584-23.2208,8.17677-2.61061,13.70575c18.33265,4.918,22.84291,3.91593,22.84291,3.91593s15.011,2.61062,16.969,1.30531,3.26327-22.19026,3.26327-22.19026S801.24893,712.53222,802.55424,708.61629Z" transform="translate(-40.04971 -115.70127)" fill="#2f2e41"/><path d="M853.4613,728.84858s-6.52655-9.13716-11.09513-5.22123-20.885,15.01105-20.885,15.01105-27.41149,7.83186-3.26327,15.01106,50.90706,5.87389,51.55971,3.26327-1.30531-21.5376-1.30531-21.5376S854.76661,734.72248,853.4613,728.84858Z" transform="translate(-40.04971 -115.70127)" fill="#2f2e41"/><circle cx="891.73014" cy="314.88415" r="23.49557" fill="#a0616a"/><path d="M914.81083,441.02789s-1.30531,26.75884-7.83185,28.7168-24.80088,23.49557-16.31637,30.02211,57.43361,1.958,57.43361,1.958l-4.56858-33.938s-10.44248-7.1792-1.958-19.57964Z" transform="translate(-40.04971 -115.70127)" fill="#a0616a"/><path d="M914.15818,485.4084l-4.56858-21.5376-15.01106-5.87389-12.40044,28.7168S868.146,579.717,872.062,581.02231a17.64878,17.64878,0,0,0,6.85287.979s20.885-6.52655,27.41149-3.26327,40.46459,5.87389,40.46459,5.87389,23.49557-12.40044,22.19026-23.49557,0-73.09732,0-73.09732l-2.937-27.73782-25.7517,4.02839Z" transform="translate(-40.04971 -115.70127)" fill="#cfcce0"/><polygon points="855.181 345.559 854.529 341.643 836.254 319.453 825.812 282.251 800.358 292.041 818.633 337.074 844.739 370.36 855.181 345.559" fill="#cfcce0"/><path d="M900.91285,433.39532s8.07737-11.10638,15.14506-13.12572,8.07737-12.11605,8.07737-12.11605,18.17407,20.19341,29.28044,21.20308,1.00967-24.23209,1.00967-24.23209L934.232,400.07619l-19.18374,2.01934-15.14506,10.0967Z" transform="translate(-40.04971 -115.70127)" fill="#2f2e41"/><polygon points="936.438 468.607 935.806 441.825 875.07 441.825 873.129 513.635 871.824 513.6 873.799 440.52 937.068 440.52 937.089 441.151 937.742 468.562 936.438 468.607" fill="#3f3d56"/><polygon points="935.132 432.036 933.826 432.036 933.826 382.218 954.894 388.334 954.529 389.587 935.132 383.956 935.132 432.036" fill="#3f3d56"/><path d="M981.38161,582.98027c-15.2656,0-28.65156,15.94435-36.03308,39.75318-.52212,1.67079-1.01161,3.38728-1.46847,5.12985a148.57684,148.57684,0,0,0-4.59468,37.35146c0,45.34643,18.8813,82.23448,42.09623,82.23448s42.09622-36.88805,42.09622-82.23448S1004.59654,582.98027,981.38161,582.98027Zm0,163.16366c-22.4905,0-40.79092-36.30718-40.79092-80.92917a147.73315,147.73315,0,0,1,4.65343-37.50155q.64611-2.45726,1.38363-4.8166c7.18573-23.14964,20.07566-38.611,34.75386-38.611,22.49049,0,40.79091,36.30718,40.79091,80.92918S1003.8721,746.14393,981.38161,746.14393Z" transform="translate(-40.04971 -115.70127)" fill="#3f3d56"/><path d="M991.49775,712.761c-8.05174,0-14.3584-20.885-14.3584-47.54627s6.30666-47.54628,14.3584-47.54628,14.35841,20.885,14.35841,47.54628S999.5495,712.761,991.49775,712.761Zm0-93.78724c-7.07531,0-13.05309,21.17559-13.05309,46.241s5.97778,46.241,13.05309,46.241,13.0531-21.17558,13.0531-46.241S998.57307,618.97379,991.49775,618.97379Z" transform="translate(-40.04971 -115.70127)" fill="#3f3d56"/><ellipse cx="953.07968" cy="549.51349" rx="5.54756" ry="10.9204" fill="#cfcce0"/><polygon points="944.269 381.129 957.975 386.35 955.364 393.529 944.269 388.96 944.269 381.129" fill="#3f3d56"/><polygon points="890.099 437.257 890.099 447.699 928.984 447.699 928.984 437.951 890.099 437.257" fill="#3f3d56"/><polygon points="790.242 432.036 790.242 442.478 829.128 442.478 829.128 432.729 790.242 432.036" fill="#3f3d56"/><path d="M901.43141,522.39922h-.31724v-8.69076a5.03,5.03,0,0,0-5.03-5.03H877.67165a5.03,5.03,0,0,0-5.03,5.03v47.67816a5.03,5.03,0,0,0,5.03,5.03h18.41253a5.03,5.03,0,0,0,5.03-5.03V528.58545h.31724Z" transform="translate(-40.04971 -115.70127)" fill="#3f3d56"/><circle cx="846.98683" cy="407.78791" r="3.08106" fill="#d0cde1"/><path d="M965.11649,553.58717l-61.61919-1.159s-34.40773,7.87625-29.80505-9.33288,28.69966-3.93274,28.69966-3.93274l64.65926-2.43375Z" transform="translate(-40.04971 -115.70127)" fill="#a0616a"/><path d="M958.865,464.84978l5.87389-4.56858s9.78982-5.22124,11.74779,13.05309,16.31636,78.97121,1.958,79.62387-50.90706,1.30531-50.90706,1.30531l3.91593-20.2323,30.02211-1.958Z" transform="translate(-40.04971 -115.70127)" fill="#cfcce0"/><polygon points="920.773 377.213 918.815 414.414 890.099 420.288 916.205 409.845 920.773 377.213" opacity="0.15"/><rect x="534.14124" y="173.56458" width="30.9126" height="29.84223" transform="translate(571.76591 -504.89475) rotate(77.21774)" fill="#61bdfa"/><path d="M541.39525,202.0248,534.196,170.29161l30.6344-6.95,7.19927,31.73318Zm-5.30758-30.494,6.47934,28.55987,27.571-6.255-6.47934-28.55987Z" transform="translate(-40.04971 -115.70127)" fill="#3f3d56"/><path d="M843.3623,333.72949v-78.707h230v58.20459h-209.498Zm2-76.707v71.87891l17.67383-17.67432H1071.3623V257.02246Z" transform="translate(-40.04971 -115.70127)" fill="#3f3d56"/><rect x="855.17916" y="153.96776" width="128.26667" height="10.4" fill="#61bdfa"/><rect x="855.17916" y="169.56776" width="128.26667" height="10.4" fill="#61bdfa"/></svg>