<?xml version="1.0" encoding="iso-8859-1"?>
<!-- Generator: Adobe Illustrator 18.1.1, SVG Export Plug-In . SVG Version: 6.00 Build 0)  -->
<svg version="1.1" id="Capa_1" xmlns="http://www.w3.org/2000/svg" xmlns:xlink="http://www.w3.org/1999/xlink" x="0px" y="0px"
	 viewBox="0 0 348.964 348.964" style="enable-background:new 0 0 348.964 348.964;" xml:space="preserve">
<g>
	<circle style="fill:#010002;" cx="174.486" cy="127.565" r="32.734"/>
	<path style="fill:#010002;" d="M116.562,58.147c-3.178-3.178-8.316-3.178-11.494,0c-38.269,38.269-38.269,100.559,0,138.844
		c1.585,1.585,3.666,2.382,5.747,2.382s4.162-0.797,5.747-2.382c3.178-3.178,3.178-8.324,0-11.494
		c-31.937-31.953-31.937-83.919,0-115.857C119.74,66.462,119.74,61.317,116.562,58.147z"/>
	<path style="fill:#010002;" d="M232.41,196.991c1.585,1.585,3.666,2.382,5.747,2.382s4.162-0.797,5.747-2.382
		c18.549-18.549,28.759-43.203,28.759-69.426c0-26.231-10.218-50.877-28.759-69.418c-3.178-3.178-8.316-3.178-11.494,0
		c-3.178,3.178-3.178,8.316,0,11.494c15.477,15.469,23.996,36.05,23.996,57.924s-8.519,42.456-23.996,57.932
		C229.232,188.667,229.232,193.813,232.41,196.991z"/>
	<path style="fill:#010002;" d="M286.425,250.997c1.585,1.585,3.666,2.382,5.747,2.382c2.081,0,4.162-0.797,5.747-2.382
		c68.061-68.061,68.061-178.812,0-246.873c-3.178-3.178-8.316-3.178-11.494,0s-3.178,8.324,0,11.494
		c61.728,61.728,61.728,162.157,0,223.885C283.254,242.682,283.254,247.819,286.425,250.997z"/>
	<path style="fill:#010002;" d="M62.539,4.124c-3.178-3.178-8.316-3.178-11.494,0c-68.061,68.061-68.061,178.812,0,246.873
		c1.585,1.585,3.666,2.382,5.747,2.382s4.162-0.797,5.747-2.382c3.178-3.178,3.178-8.316,0-11.494
		c-61.728-61.728-61.728-162.157,0-223.885C65.717,12.448,65.717,7.303,62.539,4.124z"/>
	<path style="fill:#010002;" d="M166.357,191.935v147.16c0,4.495,3.633,8.129,8.129,8.129c4.495,0,8.129-3.633,8.129-8.129v-147.16
		c0-4.495-3.633-8.129-8.129-8.129C169.991,183.806,166.357,187.44,166.357,191.935z"/>
</g>
<g>
</g>
<g>
</g>
<g>
</g>
<g>
</g>
<g>
</g>
<g>
</g>
<g>
</g>
<g>
</g>
<g>
</g>
<g>
</g>
<g>
</g>
<g>
</g>
<g>
</g>
<g>
</g>
<g>
</g>
</svg>
