<?xml version="1.0" encoding="UTF-8" standalone="no"?>
<svg
   xmlns:dc="http://purl.org/dc/elements/1.1/"
   xmlns:cc="http://creativecommons.org/ns#"
   xmlns:rdf="http://www.w3.org/1999/02/22-rdf-syntax-ns#"
   xmlns:svg="http://www.w3.org/2000/svg"
   xmlns="http://www.w3.org/2000/svg"
   width="3999.9998"
   height="3112.1489"
   viewBox="0 0 1058.3332 823.42279"
   version="1.1"
   id="svg8">
  <defs
     id="defs2" />
  <metadata
     id="metadata5">
    <rdf:RDF>
      <cc:Work
         rdf:about="">
        <dc:format>image/svg+xml</dc:format>
        <dc:type
           rdf:resource="http://purl.org/dc/dcmitype/StillImage" />
        <dc:title></dc:title>
      </cc:Work>
    </rdf:RDF>
  </metadata>
  <g
     id="layer1"
     transform="translate(-4.9287642e-5,643.87805)">
    <g
       id="g4626">
      <path
         id="path39"
         d="m 261.25009,-643.87797 c -3.42079,0.007 -3.88942,0.78748 -3.88942,3.63806 0,2.5699 -1.50095,4.60382 -4.35828,5.9057 -3.67695,1.67535 -5.01651,1.46782 -8.56852,-1.32617 -2.31561,-1.82144 -5.38035,-2.86266 -6.81088,-2.31373 -1.43052,0.54894 -3.09545,0.2416 -3.69954,-0.68337 -0.60408,-0.92498 -4.27989,-2.17877 -8.16841,-2.78569 -5.3342,-0.83259 -7.73729,-0.43605 -9.78895,1.61561 -2.20435,2.20435 -3.58928,2.36424 -7.313,0.84192 -5.38196,-2.20021 -11.22084,-2.50317 -17.70788,-0.91812 -3.47534,0.84918 -4.65327,0.51012 -4.65327,-1.3403 0,-2.05033 -2.84512,-2.36625 -16.49786,-1.83009 -17.81083,0.69944 -32.97269,3.98673 -42.14002,9.13571 -3.17089,1.78097 -6.85881,3.23799 -8.19546,3.23799 -1.33666,0 -5.00868,2.57818 -8.15981,5.72932 -3.15116,3.15115 -7.33717,6.58976 -9.30286,7.64177 -1.96572,1.05203 -4.483363,4.94645 -5.594133,8.65391 -1.11079,3.70745 -3.0169,6.74085 -4.23601,6.74085 -2.708,0 -17.95505,14.61899 -20.73631,19.88211 -1.10655,2.094 -3.16386,3.80706 -4.57154,3.80706 -4.337181,0 -10.856311,8.50776 -10.886521,14.20747 -0.0213,4.0089 -1.88074,7.04215 -7.85501,12.8131 -4.30499,4.15847 -8.93165,10.20481 -10.28181,13.43622 -1.35017,3.23142 -7.68211,10.87003 -14.07044,16.97474 -16.9518106,16.19917 -20.5164407,24.92109 -21.2924707,52.09981 -0.33063,11.57987 -0.9106801,21.55936 -1.2893001,22.17679 -0.37861002,0.61745 -0.86647003,19.39737 -1.08404004,41.73323 -0.42188001,43.31232 0.13397001,48.27996 9.47063024,84.60573 4.0176596,15.63136 4.4777296,21.30633 6.0347496,74.453 1.35974,46.41274 2.34276,60.63847 5.08652,73.60673 1.870591,8.84131 4.144581,21.02475 5.053341,27.07404 2.74158,18.25 6.82723,34.18973 10.16628,39.66529 1.73587,2.84657 3.19524,7.078792 3.24352,9.405482 0.14958,7.22319 13.3273,28.19351 22.43428,35.70026 3.263811,2.69032 6.637421,7.70487 8.038151,11.94906 1.36371,4.13208 4.94693,9.52883 8.23786,12.40564 3.20358,2.80049 6.63842,6.11488 7.63255,7.36586 0.9941,1.25102 3.52043,4.00346 5.61441,6.1165 2.28389,2.3047 3.80766,5.91624 3.80766,9.02632 0,4.98462 3.61745,10.50244 6.885283,10.50244 1.67758,0 8.35153,12.84219 13.2531,25.500794 1.64692,4.25325 6.24908,12.13823 10.22649,17.5223 10.44286,14.135932 16.89826,20.043672 33.68093,30.823332 0.32543,0.20901 -0.32071,3.14403 -1.43557,6.52208 -1.73738,5.26435 -1.61643,6.59475 0.84439,9.31393 2.19098,2.42102 2.59949,4.77873 1.725,9.95486 -0.99621,5.896502 -0.19256,8.618982 6.15397,20.834642 16.42961,31.6234 46.4455,52.51965 85.61115,59.60147 17.38262,3.14313 58.80401,3.1986 120.56104,0.16101 52.66659,-2.59046 120.65096,-9.5283 132.53471,-13.52533 7.38894,-2.48524 121.93959,-21.07828 134.35128,-21.80683 3.93077,-0.23077 7.67462,-0.94733 8.3196,-1.59228 0.64498,-0.64499 3.5868,-1.17255 6.53742,-1.17255 8.68066,0 36.2079,-4.61892 49.9109,-8.37488 6.9799,-1.91321 19.1634,-5.04266 27.074,-6.95411 73.7844,-17.82865 116.4137,-32.602792 152.8206,-52.962642 13.3978,-7.49253 31.0522,-23.477142 35.7899,-32.405762 3.1156,-5.87142 3.1432,-6.39801 0.4388,-8.37551 -2.6903,-1.96724 -2.6539,-2.3202 0.5421,-5.2125 1.8854,-1.70633 3.0901,-3.98335 2.6769,-5.06008 -0.47,-1.22479 0.6205,-1.69609 2.9123,-1.25798 2.0149,0.38516 8.3751,-1.636944 14.1337,-4.494094 5.7586,-2.85712 11.8451,-5.21913 13.526,-5.24875 1.6808,-0.0296 4.5342,-1.17167 6.3407,-2.53804 1.8066,-1.36639 4.627,-2.48457 6.2671,-2.48457 3.6247,0 18.3685,-14.58689 18.3685,-18.17309 0,-1.41133 2.3056,-6.59656 5.124,-11.52257 4.6075,-8.05304 8.0874,-11.78593 20.01601,-21.47378 1.9942,-1.61953 3.6258,-3.97045 3.6258,-5.22417 0,-1.2537 3.236,-5.4191 7.1913,-9.25616 3.9553,-3.83708 8.0823,-7.95812 9.1713,-9.15845 1.0891,-1.2003 5.0289,-4.37929 8.7553,-7.0641 5.835,-4.20395 6.5053,-5.31489 4.8272,-8.00188 -1.4921,-2.38933 -1.4217,-4.4161 0.2999,-8.65513 1.2365,-3.04442 2.6509,-7.438932 3.1434,-9.765592 0.4925,-2.32666 1.8833,-5.37252 3.0905,-6.76851 4.2802,-4.94984 7.793,-19.20752 8.0756,-32.77756 0.4051,-19.45263 -2.0123,-43.10094 -5.1701,-50.57635 -2.2968,-5.43719 -2.3693,-7.3303 -0.4959,-13.00667 1.8753,-5.68232 1.7772,-8.18821 -0.6785,-17.32626 -1.5789,-5.87579 -3.6131,-13.63205 -4.5205,-17.23591 -0.9074,-3.60389 -5.432,-13.95652 -10.055,-23.0058 -4.6231,-9.04931 -8.4076,-17.14181 -8.4087,-17.98319 0,-0.84142 -3.0363,-4.38426 -6.7446,-7.87346 -3.7083,-3.4892 -7.7865,-8.84282 -9.0626,-11.89681 -2.1831,-5.22503 -23.64071,-26.60022 -26.70281,-26.60022 -2.1945,0 -8.2501,-12.91059 -8.2501,-17.58929 0,-6.38153 -2.8503,-12.55954 -9.851,-21.35207 -3.5002,-4.39598 -8.1458,-11.32873 -10.3236,-15.40643 -2.1779,-4.07775 -6.9302,-9.6985 -10.5609,-12.49048 -3.6306,-2.79198 -8.7805,-6.78973 -11.4439,-8.88375 -2.6633,-2.09398 -5.9517,-3.80705 -7.3074,-3.80705 -3.6135,0 -18.3628,-8.10033 -23.3666,-12.83274 -2.3775,-2.24869 -5.5002,-4.08854 -6.9393,-4.08854 -1.4391,0 -5.9666,-1.77675 -10.0606,-3.94838 -4.0939,-2.17164 -9.5372,-4.47055 -12.0965,-5.10865 -3.0455,-0.7593 -4.6533,-2.27562 -4.6533,-4.38905 0,-3.50279 -6.531,-9.41948 -12.4075,-11.24048 -3.4904,-1.0816 -13.4394,-9.10093 -23.5552,-18.98613 -2.5623,-2.50388 -6.1978,-7.81944 -8.0787,-11.8126 -3.4729,-7.37306 -3.9377,-7.73514 -12.2938,-9.5702 -2.5992,-0.57079 -5.1901,-2.34746 -5.7576,-3.9484 -2.3543,-6.64205 -13.1591,-18.98611 -16.6189,-18.98611 -1.9599,0 -5.1182,-1.44846 -7.0186,-3.21892 -1.9004,-1.77053 -8.1323,-5.65307 -13.8486,-8.62811 -9.286,-4.83282 -12.333,-5.50168 -28.5914,-6.27687 -10.0085,-0.4772 -18.4509,-1.54373 -18.7612,-2.37027 -0.3102,-0.82657 -2.9752,-1.52702 -5.9222,-1.55663 -2.9471,-0.0296 -6.837,-1.17227 -8.6435,-2.53866 -1.8065,-1.36637 -4.9871,-2.48396 -7.0684,-2.48396 -4.7001,0 -10.0722,-6.59878 -11.4795,-14.10055 -0.7766,-4.13948 -3.0716,-7.11097 -8.5052,-11.01311 -4.093,-2.93931 -8.231,-5.34463 -9.196,-5.34463 -0.9649,0 -2.4061,-1.16382 -3.2023,-2.58658 -3.6148,-6.45931 -37.98953,-14.12922 -39.74336,-8.86777 -0.4927,1.47806 -2.98976,0.86494 -8.60167,-2.11216 -4.34905,-2.30717 -7.90722,-4.76732 -7.90722,-5.46692 0,-0.69959 -0.83693,-1.27148 -1.85961,-1.27148 -5.65489,0 -23.41516,-11.49908 -32.01123,-20.72586 -2.78181,-2.98599 -3.92615,-3.12223 -11.8968,-1.41282 -4.85034,1.0402 -12.60563,1.3889 -17.23409,0.77493 -5.63715,-0.74779 -8.81384,-0.47132 -9.62241,0.83699 -1.31259,2.12379 -11.98163,0.76668 -11.98163,-1.52404 0,-1.41572 -5.46471,-0.55334 -10.99838,1.73545 -4.29009,1.77442 -28.1835,5.39095 -37.64959,5.69859 -5.79833,0.18848 -7.19129,0.84313 -7.19129,3.37996 0,2.61516 -0.92854,2.98673 -5.49948,2.2025 -16.98663,-2.91432 -24.56895,-5.64445 -30.10556,-10.84043 -3.21836,-3.02034 -6.83405,-5.49474 -8.03444,-5.4995 -1.20043,-0.005 -5.38833,-1.66148 -9.30657,-3.68292 -5.77455,-2.97915 -10.32913,-3.72403 -24.04497,-3.93119 -9.30661,-0.14056 -17.87918,0.46948 -19.05002,1.35567 -1.18165,0.89441 -5.69885,1.09865 -10.15277,0.45907 -4.41313,-0.63373 -9.73707,-1.12114 -11.83108,-1.08344 -2.09398,0.0378 -3.80705,-0.87444 -3.80705,-2.02735 0,-1.47596 -3.66594,-2.09619 -12.38907,-2.09619 -9.54255,0 -13.06897,-0.68052 -15.34989,-2.96145 -3.26772,-3.26772 -7.79539,-3.9601 -7.79539,-1.19219 0,2.66879 -12.32359,-0.10465 -14.67145,-3.30192 -1.4736,-2.00668 -4.3966,-2.5941 -11.42179,-2.29468 -5.19274,0.22132 -9.44114,-0.28341 -9.44114,-1.12152 0,-0.83812 -2.28468,-1.16396 -5.07667,-0.72393 -3.4618,0.54557 -5.07755,0.0953 -5.08469,-1.4165 -0.006,-1.39169 -2.52466,-2.36011 -6.76851,-2.60135 -1.13437,-0.0644 -2.08107,-0.10381 -2.87048,-0.10203 z m 59.13933,229.30459 c 67.48267,0 110.71391,27.41492 137.60156,86.46227 l -69.0641,35.85023 c -9.48976,-30.57809 -28.99684,-51.13929 -68.53746,-51.13929 -46.92156,0 -78.02652,31.63234 -78.02652,89.62527 v 59.04716 c 0,57.99293 31.10496,89.62589 78.02652,89.62589 39.54062,0 62.21089,-24.77932 73.28226,-54.83019 l 65.37383,37.95932 c -27.41484,55.884052 -71.17342,88.044052 -138.65609,88.044052 -99.11521,0 -162.90697,-63.26508 -162.90697,-187.686272 0,-124.42123 63.79176,-192.95844 162.90697,-192.95844 z m 334.62945,0 c 97.53352,0 161.85302,65.37369 161.85302,190.32204 0,124.948412 -64.3195,190.322672 -161.85302,190.322672 -97.53361,0 -161.85305,-65.37426 -161.85305,-190.322672 0,-124.94835 64.31944,-190.32204 161.85305,-190.32204 z m 0,71.17321 c -47.97601,0 -76.9726,33.21421 -76.9726,91.73435 v 54.82961 c 0,58.52013 28.99659,91.73436 76.9726,91.73436 47.97592,0 76.97252,-33.21423 76.97252,-91.73436 v -54.82961 c 0,-58.52014 -28.9966,-91.73435 -76.97252,-91.73435 z m 195.09082,257.404242 c 23.3196,0 36.7549,13.74439 36.7549,32.43096 0,18.53215 -13.2813,29.80634 -28.7247,42.00669 l -20.0763,15.75242 h 50.9635 v 19.458694 h -76.291 V 2.494932 l 33.2034,-28.41557 c 12.0459,-10.34712 16.2158,-16.37014 16.2158,-25.48175 v -2.16258 c 0,-8.18502 -7.2586,-12.35464 -14.2081,-12.35464 -10.1927,0 -15.1347,6.94977 -17.2968,15.13483 l -20.2305,-7.72169 c 4.7874,-14.98014 17.2968,-27.48946 39.6898,-27.48946 z m 59.5265,118.514684 c 0.7442,0.0486 0.8794,0.75661 0.8794,2.00524 0,1.8491 -3.7461,7.31359 -8.3245,12.14386 -4.5784,4.83024 -10.5989,10.116182 -13.3791,11.746252 l -5.0552,2.96391 1.8578,-6.34817 c 2.7225,-9.302022 4.8215,-11.776652 15.3745,-18.131302 5.1709,-3.11381 7.5595,-4.45085 8.6471,-4.37979 z M 176.24303,105.74942 c 0.40325,0.0268 2.59484,3.27336 5.20206,7.74623 2.87691,4.93562 4.81489,9.38951 4.30667,9.89775 -0.92581,0.92577 -9.64526,-15.05261 -9.5751,-17.54627 0.002,-0.0683 0.0246,-0.10049 0.0664,-0.0976 z m 487.08376,23.51647 c 0.5878,0.0243 1.0936,0.17979 1.3747,0.46092 0.5623,0.56227 -0.4372,0.96265 -2.22093,0.88922 -1.97124,-0.0812 -2.37241,-0.48242 -1.02259,-1.0226 0.61075,-0.2444 1.28097,-0.35173 1.86882,-0.32754 z"
         style="fill:#ffffff;fill-opacity:1;stroke-width:1.69211078" />
    </g>
  </g>
</svg>
