<svg xmlns="http://www.w3.org/2000/svg" xmlns:xlink="http://www.w3.org/1999/xlink" version="1.1" x="0px" y="0px" viewBox="0 0 100 125" enable-background="new 0 0 100 100" xml:space="preserve"><g>
<path d="M85.414,28.586l-22-22C63.039,6.211,62.53,6,62,6H16c-1.104,0-2,0.896-2,2v84c0,1.104,0.896,2,2,2h68c1.104,0,2-0.896,2-2   V30C86,29.47,85.789,28.961,85.414,28.586z M64,12.828L79.171,28H64V12.828z M18,90V10h42v20c0,1.104,0.896,2,2,2h20v58H18z"/>
<path fill="#000000" d="M68,42H32c-1.104,0-2,0.896-2,2v30c0,1.104,0.896,2,2,2h36c1.104,0,2-0.896,2-2V44   C70,42.896,69.104,42,68,42z M66,52H46v-6h20V52z M34,56h8v6h-8V56z M46,56h20v6H46V56z M42,46v6h-8v-6H42z M34,66h8v6h-8V66z    M46,72v-6h20v6H46z"/></g>
<text x="50" y="54" fill="#000000" font-size="1px" font-weight="bold" font-family="'Helvetica Neue', Helvetica, Arial-Unicode, Arial, Sans-serif">Created by Jamison Wieser</text><text x="50" y="55" fill="#000000" font-size="1px" font-weight="bold" font-family="'Helvetica Neue', Helvetica, Arial-Unicode, Arial, Sans-serif">from the Noun Project</text>
</svg>